<svg xmlns="http://www.w3.org/2000/svg" width="24" height="24" viewBox="0 0 24 24">
  <defs>
    <linearGradient id="a" x1="31.913%" x2="108.541%" y1="31.348%" y2="107.977%">
      <stop stop-color="#263238" stop-opacity=".2" offset="0%"/>
      <stop stop-color="#222D51" stop-opacity=".159" offset="22.97%"/>
      <stop stop-color="#1D276A" stop-opacity=".107" offset="51.9%"/>
      <stop stop-color="#1B2479" stop-opacity=".059" offset="78.4%"/>
      <stop stop-color="#1A237E" stop-opacity=".02" offset="100%"/>
      <stop stop-color="#1F2964" stop-opacity=".02" offset="100%"/>
      <stop stop-color="#232E4C" stop-opacity=".02" offset="100%"/>
      <stop stop-color="#25313D" stop-opacity=".02" offset="100%"/>
      <stop stop-color="#263238" stop-opacity=".02" offset="100%"/>
    </linearGradient>
    <linearGradient id="b" x1="-37.721%" x2="100.614%" y1="49.896%" y2="49.896%">
      <stop stop-color="#FFFFFF" stop-opacity=".1" offset="0%"/>
      <stop stop-color="#FFFFFF" stop-opacity="0" offset="100%"/>
    </linearGradient>
    <linearGradient id="c" x1=".011%" x2="99.989%" y1="49.989%" y2="49.989%">
      <stop stop-color="#FFFFFF" stop-opacity=".1" offset="0%"/>
      <stop stop-color="#FFFFFF" stop-opacity="0" offset="100%"/>
    </linearGradient>
  </defs>
  <g fill="none" fill-rule="evenodd" transform="translate(-1)">
    <circle cx="12" cy="12" r="11" fill="#0F9D58"/>
    <path fill="#FFFFFF" d="M12,1.1 C18.1,1.1 23,6 23,12 C23,12 23,12 23,11.9 C23,5.8 18.1,0.9 12,0.9 C5.9,0.9 1,5.9 1,12 C1,12 1,12 1,12.1 C1,6 5.9,1.1 12,1.1 L12,1.1 Z" opacity=".2"/>
    <path fill="#263238" d="M12,22.9 C5.9,22.9 1,18 1,11.9 C1,11.9 1,11.9 1,12 C1,18.1 5.9,23 12,23 C18.1,23 23,18.1 23,12 C23,12 23,12 23,11.9 C23,18 18.1,22.9 12,22.9 L12,22.9 Z" opacity=".2"/>
    <rect width="24" height="24"/>
    <g transform="translate(5 4)">
      <circle cx="7" cy="7" r="7" fill="#C9C9C9" transform="translate(0 1)"/>
      <g transform="translate(0 1)">
        <path fill="#CCCCCC" d="M7,0 C6.6,0 6.1,0 5.7,0.1 C6.5,1.2 7,2.6 7,4.1 C7,7.5 4.5,10.4 1.3,11 C2.6,12.8 4.7,14 7,14 C10.9,14 14,10.9 14,7 C14,3.1 10.9,0 7,0 L7,0 Z"/>
        <path fill="#F5F5F5" d="M7,4.1 C7,2.6 6.5,1.2 5.7,0.1 C2.5,0.7 0,3.6 0,7 C0,8.5 0.5,9.9 1.3,11 C4.5,10.4 7,7.6 7,4.1 L7,4.1 Z"/>
        <path fill="#FFFFFF" d="M7,0.1 C10.9,0.1 14,3.2 14,7.1 L14,7.1 C14,3.1 10.9,0 7,0.1 C3.1,0 0,3.1 0,7 L0,7 C0,3.2 3.1,0.1 7,0.1 L7,0.1 Z" opacity=".2"/>
      </g>
      <g opacity=".2">
        <path fill="#FFFFFF" d="M7,1.1 C10.8,1.1 14,4.2 14,8 C14,8 14,8 14,7.9 C14,4 10.9,0.9 7,0.9 C3.1,0.9 0,4 0,7.9 C0,7.9 0,7.9 0,8 C0,4.2 3.2,1.1 7,1.1 L7,1.1 Z"/>
        <path fill="#263238" d="M7,15 C3.2,15 0,11.9 0,8.1 C0,8.1 0,8.1 0,8.2 C0,12.1 3.1,15.2 7,15.2 C10.9,15.2 14,12.1 14,8.2 C14,8.2 14,8.2 14,8.1 C14,11.9 10.8,15 7,15 L7,15 Z"/>
      </g>
    </g>
    <rect width="24" height="24"/>
    <g transform="translate(7 7)">
      <path fill="url(#a)" d="M15.9,6.1 L10,0.1 C11.2,1.4 12,3.1 12,5 C12,8.9 8.9,12 5,12 C3,12 1.3,11.2 0,9.9 L0,9.9 L6.1,16 C11.3,15.5 15.4,11.3 15.9,6.1 L15.9,6.1 Z"/>
      <path fill="url(#b)" d="M15.9,6.1 L10,0.1 C11.2,1.4 12,3.1 12,5 C12,8.9 8.9,12 5,12 C3,12 1.3,11.2 0,9.9 L0,9.9 L6.1,16 C11.3,15.5 15.4,11.3 15.9,6.1 L15.9,6.1 Z"/>
    </g>
    <circle cx="12" cy="12" r="11" fill="url(#c)"/>
  </g>
</svg>
