<svg xmlns="http://www.w3.org/2000/svg" viewBox="0 0 32 32"><defs><style>.cls-1{fill:#1e88e5;}.cls-2{fill:#1976d2;}.cls-3{fill:#1565c0;}</style></defs><title>32px_Auto_ML Colored</title><g id="Art"><polygon class="cls-1" points="4 23.34 12 10 14.67 10 17.33 6 14.64 2 8 2 0 15.34 4 23.34"/><polygon class="cls-2" points="17.33 2 20 6 17.33 10 22.67 10 25.33 6 22.67 2 17.33 2"/><polygon class="cls-3" points="28 8.66 20 22 17.33 22 14.67 26 17.36 30 24 30 32 16.66 28 8.66"/><polygon class="cls-2" points="14.67 30 12 26 14.67 22 9.33 22 6.67 26 9.33 30 14.67 30"/></g></svg>
