<?xml version="1.0" encoding="UTF-8"?>
<svg id="Calque_2" data-name="Calque 2" xmlns="http://www.w3.org/2000/svg" viewBox="0 0 895 148.66">
  <defs>
    <style>
      .cls-1 {
        fill: #9031ff;
      }

      .cls-2 {
        fill: #000a06;
      }
    </style>
  </defs>
  <g id="Calque_1-2" data-name="Calque 1">
    <g>
      <path class="cls-2" d="M0,146.52V1.79h35.38c12.27,0,21.83,1.58,28.68,4.73,6.85,3.16,11.7,8.1,14.56,14.83,2.86,6.73,4.29,15.34,4.29,25.82v52.71c0,10.72-1.43,19.54-4.29,26.45-2.86,6.91-7.65,12-14.38,15.28-6.73,3.28-16.11,4.91-28.14,4.91H0ZM29.48,125.97h6.25c5.48,0,9.38-.86,11.7-2.59,2.32-1.73,3.78-4.29,4.38-7.68.59-3.39.89-7.59.89-12.59v-59.68c0-5-.39-9.02-1.16-12.06-.78-3.04-2.32-5.27-4.65-6.7-2.32-1.43-6.11-2.15-11.35-2.15h-6.08v103.46Z"/>
      <path class="cls-2" d="M102.74,146.52V1.79h29.3v144.73h-29.3Z"/>
      <path class="cls-2" d="M191.19,148.66c-9.77,0-17.51-2.05-23.23-6.17-5.72-4.11-9.8-9.94-12.24-17.51-2.44-7.56-3.66-16.35-3.66-26.36v-48.42c0-10.36,1.25-19.3,3.75-26.8,2.5-7.5,6.88-13.28,13.13-17.33,6.25-4.05,14.74-6.07,25.46-6.07s18.55,1.73,24.57,5.18c6.01,3.46,10.33,8.34,12.95,14.65,2.62,6.32,3.93,13.82,3.93,22.51v8.4h-28.77v-10.19c0-3.81-.24-7.17-.71-10.1-.48-2.92-1.58-5.21-3.31-6.88-1.73-1.67-4.5-2.5-8.31-2.5s-6.79,1.01-8.58,3.04c-1.79,2.03-2.92,4.62-3.39,7.77-.48,3.16-.71,6.52-.71,10.1v64.15c0,4.05.36,7.68,1.07,10.9.71,3.22,2.05,5.72,4.02,7.51,1.97,1.79,4.79,2.68,8.49,2.68s6.55-.95,8.58-2.86c2.02-1.9,3.42-4.49,4.2-7.77.77-3.28,1.16-7,1.16-11.17v-15.37h-14.12v-17.87h40.74v74.33h-19.3l-1.79-13.04c-1.91,4.41-4.77,8.04-8.58,10.9-3.81,2.86-8.93,4.29-15.37,4.29Z"/>
      <path class="cls-2" d="M256.76,146.52V1.79h29.3v144.73h-29.3Z"/>
      <path class="cls-2" d="M321.8,146.52V23.76h-22.34V1.79h73.97v21.98h-21.98v122.76h-29.66Z"/>
      <path class="cls-2" d="M371.47,146.52L399.53,1.79h32.7l27.87,144.73h-27.34l-5.18-31.81h-22.87l-5.54,31.81h-27.7ZM407.39,96.67h17.33l-8.76-58.43-8.58,58.43Z"/>
      <path class="cls-2" d="M474.75,146.52V1.79h29.48v124.72h33.95v20.01h-63.43Z"/>
      <path class="cls-1" d="M557.12,146.52V1.79h29.48v61.11l26.09-61.11h28.59l-27.16,65.04,29.13,79.69h-29.66l-22.34-64.86-4.65,8.22v56.64h-29.48Z"/>
      <path class="cls-1" d="M655.75,146.52V1.79h63.07v20.37h-33.59v38.42h25.91v20.55h-25.91v45.39h33.95v20.01h-63.43Z"/>
      <path class="cls-1" d="M752.95,146.52v-57.36L724.72,1.79h27.7l15.55,50.92,14.47-50.92h26.8l-27.87,87.37v57.36h-28.41Z"/>
      <path class="cls-1" d="M857.83,148.48c-8.93,0-16.38-1.64-22.34-4.91-5.96-3.27-10.45-8.22-13.49-14.83-3.04-6.61-4.8-15.04-5.27-25.28l25.37-4.29c.24,5.96.86,10.93,1.88,14.92,1.01,3.99,2.56,6.97,4.65,8.93,2.08,1.96,4.67,2.95,7.77,2.95,3.81,0,6.4-1.19,7.77-3.57,1.37-2.38,2.05-5.12,2.05-8.22,0-6.08-1.46-11.17-4.38-15.28-2.92-4.11-6.76-8.25-11.53-12.42l-15.01-13.04c-5.36-4.52-9.74-9.65-13.13-15.37-3.39-5.72-5.09-12.75-5.09-21.09,0-11.91,3.48-21.05,10.45-27.43,6.97-6.37,16.53-9.56,28.68-9.56,7.26,0,13.22,1.19,17.87,3.57,4.65,2.39,8.25,5.57,10.81,9.56,2.56,3.99,4.35,8.34,5.36,13.04,1.01,4.71,1.64,9.38,1.88,14.03l-25.19,3.75c-.24-4.4-.63-8.28-1.16-11.61-.54-3.33-1.61-5.96-3.22-7.86-1.61-1.9-4.02-2.86-7.24-2.86-3.46,0-6.02,1.28-7.68,3.84-1.67,2.56-2.5,5.39-2.5,8.49,0,5.12,1.16,9.32,3.48,12.6,2.32,3.28,5.51,6.7,9.56,10.27l14.65,12.87c6.08,5.24,11.28,11.23,15.63,17.96,4.35,6.73,6.52,15.04,6.52,24.93,0,6.79-1.55,12.93-4.65,18.4-3.1,5.48-7.42,9.77-12.95,12.87s-12.06,4.64-19.57,4.64Z"/>
    </g>
  </g>
</svg>